<svg xmlns="http://www.w3.org/2000/svg" xmlns:xlink="http://www.w3.org/1999/xlink" width="600" zoomAndPan="magnify" viewBox="0 0 450 449.999984" height="600" preserveAspectRatio="xMidYMid meet" version="1.0"><defs><clipPath id="4168475f3c"><path d="M 15 51.804688 L 434 51.804688 L 434 398.207031 L 15 398.207031 Z M 15 51.804688 " clip-rule="nonzero"/></clipPath><clipPath id="d870f28d44"><path d="M 267 144 L 330.949219 144 L 330.949219 262 L 267 262 Z M 267 144 " clip-rule="nonzero"/></clipPath><clipPath id="7160e04f92"><path d="M 119.070312 144 L 183 144 L 183 262 L 119.070312 262 Z M 119.070312 144 " clip-rule="nonzero"/></clipPath><clipPath id="d8b9a8f879"><path d="M 190 124 L 260 124 L 260 282.285156 L 190 282.285156 Z M 190 124 " clip-rule="nonzero"/></clipPath></defs><rect x="-45" width="540" fill="#ffffff" y="-44.999998" height="539.99998" fill-opacity="1"/><rect x="-45" width="540" fill="#ffffff" y="-44.999998" height="539.99998" fill-opacity="1"/><g clip-path="url(#4168475f3c)"><path fill="#a6a6a6" d="M 231.734375 354.894531 L 231.734375 383.761719 L 354.265625 383.761719 C 358.324219 383.761719 361.632812 387.144531 361.632812 390.976562 C 361.632812 394.960938 358.324219 398.195312 354.265625 398.195312 L 94.773438 398.195312 C 90.714844 398.195312 87.40625 394.8125 87.40625 390.976562 C 87.40625 386.992188 90.714844 383.761719 94.773438 383.761719 L 217.300781 383.761719 L 217.300781 354.894531 L 37.039062 354.894531 C 25.011719 354.894531 15.242188 345.125 15.242188 333.320312 L 15.242188 73.378906 C 15.242188 61.425781 24.863281 51.804688 37.039062 51.804688 L 411.996094 51.804688 C 424.023438 51.804688 433.796875 61.578125 433.796875 73.378906 L 433.796875 333.320312 C 433.796875 345.273438 424.171875 354.894531 411.996094 354.894531 Z M 51.25 80.671875 C 47.339844 80.671875 44.105469 83.828125 44.105469 87.734375 L 44.105469 318.964844 C 44.105469 322.949219 47.339844 326.03125 51.25 326.03125 L 397.789062 326.03125 C 401.699219 326.03125 404.929688 322.871094 404.929688 318.964844 L 404.929688 87.734375 C 404.929688 83.753906 401.699219 80.671875 397.789062 80.671875 Z M 51.25 80.671875 " fill-opacity="1" fill-rule="evenodd"/></g><g clip-path="url(#d870f28d44)"><path fill="#a6a6a6" d="M 272.164062 261.984375 C 270.90625 261.984375 269.648438 261.507812 268.691406 260.546875 C 266.773438 258.628906 266.773438 255.519531 268.691406 253.601562 L 319.019531 203.273438 L 268.691406 152.945312 C 266.773438 151.027344 266.773438 147.917969 268.691406 146 C 270.609375 144.082031 273.71875 144.082031 275.636719 146 L 329.4375 199.800781 C 330.359375 200.722656 330.875 201.972656 330.875 203.273438 C 330.875 204.578125 330.359375 205.824219 329.4375 206.746094 L 275.636719 260.546875 C 274.675781 261.507812 273.417969 261.984375 272.164062 261.984375 Z M 272.164062 261.984375 " fill-opacity="1" fill-rule="nonzero"/></g><g clip-path="url(#7160e04f92)"><path fill="#a6a6a6" d="M 177.835938 261.984375 C 176.578125 261.984375 175.320312 261.507812 174.363281 260.546875 L 120.5625 206.746094 C 119.640625 205.828125 119.121094 204.578125 119.121094 203.273438 C 119.121094 201.972656 119.640625 200.722656 120.5625 199.800781 L 174.363281 146.003906 C 176.28125 144.085938 179.390625 144.085938 181.308594 146.003906 C 183.226562 147.921875 183.226562 151.03125 181.308594 152.949219 L 130.980469 203.273438 L 181.308594 253.601562 C 183.226562 255.519531 183.226562 258.628906 181.308594 260.546875 C 180.347656 261.507812 179.089844 261.984375 177.835938 261.984375 Z M 177.835938 261.984375 " fill-opacity="1" fill-rule="nonzero"/></g><g clip-path="url(#d8b9a8f879)"><path fill="#a6a6a6" d="M 195.765625 282.269531 C 195.164062 282.269531 194.554688 282.160156 193.964844 281.925781 C 191.441406 280.929688 190.203125 278.078125 191.199219 275.554688 L 249.664062 127.386719 C 250.660156 124.863281 253.507812 123.625 256.035156 124.621094 C 258.558594 125.617188 259.796875 128.46875 258.800781 130.992188 L 200.335938 279.160156 C 199.574219 281.089844 197.722656 282.269531 195.765625 282.269531 Z M 195.765625 282.269531 " fill-opacity="1" fill-rule="nonzero"/></g></svg>
