<?xml version="1.0" encoding="UTF-8"?>
<!DOCTYPE svg PUBLIC "-//W3C//DTD SVG 1.1//EN" "http://www.w3.org/Graphics/SVG/1.1/DTD/svg11.dtd">
<svg xmlns="http://www.w3.org/2000/svg" version="1.1" width="525px" height="525px" style="shape-rendering:geometricPrecision; text-rendering:geometricPrecision; image-rendering:optimizeQuality; fill-rule:evenodd; clip-rule:evenodd" xmlns:xlink="http://www.w3.org/1999/xlink">
<g><path style="opacity:0.961" fill="#a5a5a5" d="M 499.5,405.5 C 494.236,411.431 487.569,414.598 479.5,415C 409.263,415.831 339.096,415.665 269,414.5C 268.5,425.161 268.333,435.828 268.5,446.5C 316.501,446.333 364.501,446.5 412.5,447C 418.666,448.816 421.166,452.983 420,459.5C 418.833,462 417,463.833 414.5,465C 311.167,465.667 207.833,465.667 104.5,465C 97.5248,460.286 96.8582,454.786 102.5,448.5C 104.115,447.846 105.782,447.346 107.5,447C 155.166,446.5 202.832,446.333 250.5,446.5C 250.667,435.828 250.5,425.161 250,414.5C 180.237,415.665 110.404,415.831 40.5,415C 27.053,414.207 18.553,407.373 15,394.5C 14.3333,289.5 14.3333,184.5 15,79.5C 17.5267,68.9733 24.0267,62.4733 34.5,60C 184.5,59.3333 334.5,59.3333 484.5,60C 494.532,62.3636 501.032,68.5303 504,78.5C 504.667,184.5 504.667,290.5 504,396.5C 502.967,399.784 501.467,402.784 499.5,405.5 Z M 53.5,95.5 C 191.167,95.3333 328.834,95.5 466.5,96C 467.701,96.9025 468.535,98.0692 469,99.5C 469.995,191.914 469.662,284.248 468,376.5C 467.097,377.701 465.931,378.535 464.5,379C 327.086,379.997 189.753,379.663 52.5,378C 52,377.5 51.5,377 51,376.5C 50.3333,283.5 50.3333,190.5 51,97.5C 51.9947,96.9341 52.828,96.2674 53.5,95.5 Z"/></g>
<g><path style="opacity:0.885" fill="#a6a6a6" d="M 224.5,329.5 C 223.124,327.918 222.124,326.085 221.5,324C 232.134,297.261 242.468,270.427 252.5,243.5C 265.392,210.54 278.726,177.707 292.5,145C 299.77,142.629 303.27,145.129 303,152.5C 280,210.833 257,269.167 234,327.5C 231.261,330.414 228.094,331.081 224.5,329.5 Z"/></g>
<g><path style="opacity:0.931" fill="#a5a5a5" d="M 205.5,167.5 C 212.594,167.729 215.094,171.063 213,177.5C 193.167,197.333 173.333,217.167 153.5,237C 173.333,256.833 193.167,276.667 213,296.5C 215.117,302.073 213.117,305.406 207,306.5C 205.188,306.507 203.688,305.84 202.5,304.5C 182.045,283.877 161.545,263.544 141,243.5C 139.445,241.557 138.278,239.39 137.5,237C 159.324,213.009 181.991,189.843 205.5,167.5 Z"/></g>
<g><path style="opacity:0.901" fill="#a6a6a6" d="M 312.5,169.5 C 315.384,167.195 318.384,167.029 321.5,169C 343,190.5 364.5,212 386,233.5C 387.394,238.428 386.061,242.428 382,245.5C 361.222,265.277 340.722,285.444 320.5,306C 313.115,306.947 310.281,303.78 312,296.5C 331.833,276.667 351.667,256.833 371.5,237C 352.333,218.167 333.167,199.333 314,180.5C 311.397,177.116 310.897,173.449 312.5,169.5 Z"/></g>
<g><path style="opacity:0.004" fill="#000000" d="M 499.5,405.5 C 500.833,406.167 500.833,406.167 499.5,405.5 Z"/></g>
</svg>
